<?xml version="1.0" encoding="UTF-8" standalone="no"?>
<svg width="13px" height="19px" viewBox="0 0 13 19" version="1.1" xmlns="http://www.w3.org/2000/svg" xmlns:xlink="http://www.w3.org/1999/xlink">
    <!-- Generator: sketchtool 39.1 (31720) - http://www.bohemiancoding.com/sketch -->
    <title>3F06B1E9-6F17-42DB-B9F8-D94F4098CC02</title>
    <desc>Created with sketchtool.</desc>
    <defs></defs>
    <g id="Symbols" stroke="none" stroke-width="1" fill="none" fill-rule="evenodd">
        <g id="Header-lockup" transform="translate(-439.000000, -168.000000)" fill="#FFFFFF">
            <g id="Group-11">
                <g id="Group-5" transform="translate(92.000000, 155.000000)">
                    <g id="Group-6" transform="translate(325.000000, 0.000000)">
                        <g id="Pin" transform="translate(22.000000, 13.000000)">
                            <path d="M0,6.2512 C0,7.4652 0.68,9.2442 1.883,11.5222 C2.179,12.0832 2.503,12.6662 2.851,13.2662 C3.46,14.3142 4.111,15.3652 4.762,16.3672 C4.989,16.7182 5.201,17.0382 5.391,17.3202 C5.506,17.4912 5.588,17.6112 5.633,17.6762 L6.25,18.5692 L6.867,17.6762 C6.912,17.6112 6.994,17.4912 7.109,17.3202 C7.299,17.0382 7.511,16.7182 7.738,16.3672 C8.389,15.3652 9.04,14.3142 9.649,13.2662 C9.997,12.6662 10.321,12.0832 10.617,11.5222 C11.82,9.2442 12.5,7.4652 12.5,6.2512 C12.5,2.7992 9.702,0.0002 6.25,0.0002 C2.798,0.0002 0,2.7992 0,6.2512 M11,6.2512 C11,7.1372 10.38,8.7582 9.291,10.8212 C9.004,11.3642 8.69,11.9302 8.351,12.5132 C7.757,13.5382 7.119,14.5672 6.48,15.5502 C6.402,15.6712 6.242,15.9022 6.242,15.9022 C6.166,15.7852 6.101,15.6752 6.02,15.5502 C5.381,14.5672 4.743,13.5382 4.149,12.5132 C3.81,11.9302 3.496,11.3642 3.209,10.8212 C2.12,8.7582 1.5,7.1372 1.5,6.2512 C1.5,3.6272 3.627,1.5002 6.25,1.5002 C8.873,1.5002 11,3.6272 11,6.2512" id="Fill-1"></path>
                            <path d="M3.3552,5.9602 C3.3552,4.3622 4.6512,3.0662 6.2502,3.0662 C7.8492,3.0662 9.1432,4.3622 9.1432,5.9602 C9.1432,7.5602 7.8492,8.8552 6.2502,8.8552 C4.6512,8.8552 3.3552,7.5602 3.3552,5.9602" id="Fill-3"></path>
                        </g>
                    </g>
                </g>
            </g>
        </g>
    </g>
</svg>